<svg width="900" height="640" viewBox="0 0 900 640" fill="none" xmlns="http://www.w3.org/2000/svg">
  <rect width="900" height="640" rx="36" fill="#E9E0D0"/>
  <path d="M0 466C95 429 199 402 323 400C477 398 583 443 688 441C775 440 846 408 900 380V640H0V466Z" fill="#C7D6C8"/>
  <rect x="217" y="182" width="468" height="256" rx="18" fill="#F8F5EE"/>
  <rect x="258" y="136" width="386" height="68" rx="14" fill="#0F4C5C"/>
  <rect x="282" y="228" width="78" height="126" rx="8" fill="#C48A3A"/>
  <rect x="390" y="228" width="118" height="210" rx="8" fill="#123848"/>
  <rect x="538" y="228" width="78" height="126" rx="8" fill="#C48A3A"/>
  <rect x="430" y="294" width="38" height="144" rx="8" fill="#F8F5EE"/>
  <rect x="112" y="408" width="676" height="20" rx="10" fill="#A8BCAC"/>
  <circle cx="154" cy="198" r="48" fill="#8FB08F"/>
  <rect x="146" y="234" width="16" height="84" rx="8" fill="#7B5E3A"/>
  <circle cx="748" cy="182" r="56" fill="#8FB08F"/>
  <rect x="738" y="224" width="18" height="94" rx="9" fill="#7B5E3A"/>
  <path d="M274 136L450 72L628 136H274Z" fill="#C48A3A"/>
</svg>
